<svg width="24" height="24" viewBox="0 0 24 24" fill="none" xmlns="http://www.w3.org/2000/svg">
<path d="M11.3691 4.22461C11.7619 3.90426 12.3409 3.92685 12.707 4.29297L19.707 11.293C19.993 11.579 20.0786 12.0091 19.9238 12.3828C19.769 12.7564 19.4044 13 19 13H16V18C16 18.5523 15.5523 19 15 19H8.99997C8.44769 19 7.99997 18.5523 7.99997 18V13H4.99997C4.59556 13 4.23095 12.7564 4.07614 12.3828C3.92136 12.0091 4.00694 11.579 4.29294 11.293L11.2929 4.29297L11.3691 4.22461ZM7.41403 11H8.99997C9.55226 11 9.99997 11.4477 9.99997 12V17H14V12C14 11.4477 14.4477 11 15 11H16.5859L12 6.41406L7.41403 11Z" fill="black"/>
</svg>
