<svg width="24" height="24" viewBox="0 0 24 24" fill="none" xmlns="http://www.w3.org/2000/svg">
<path d="M15 5L15.1025 5.00488C15.6066 5.05621 16 5.48232 16 6V11H19C19.4044 11 19.769 11.2436 19.9238 11.6172C20.0786 11.9909 19.993 12.421 19.707 12.707L12.707 19.707C12.3165 20.0976 11.6835 20.0976 11.2929 19.707L4.29294 12.707C4.00694 12.421 3.92136 11.9909 4.07614 11.6172C4.23095 11.2436 4.59556 11 4.99997 11H7.99997V6L8.00485 5.89746C8.05619 5.39333 8.4823 5 8.99997 5H15ZM9.99997 12C9.99997 12.5523 9.55226 13 8.99997 13H7.41403L12 17.5859L16.5859 13H15C14.4477 13 14 12.5523 14 12V7H9.99997V12Z" fill="black"/>
</svg>
