<!-- <svg width="12px" fill="white" xmlns="http://www.w3.org/2000/svg" viewBox="0 0 512 512">!Font Awesome Free 6.7.2 by @fontawesome - https://fontawesome.com License - https://fontawesome.com/license/free Copyright 2025 Fonticons, Inc.<path d="M272 96c-78.6 0-145.1 51.5-167.7 122.5c33.6-17 71.5-26.5 111.7-26.5l88 0c8.8 0 16 7.2 16 16s-7.2 16-16 16l-16 0-72 0s0 0 0 0c-16.6 0-32.7 1.9-48.3 5.4c-25.9 5.9-49.9 16.4-71.4 30.7c0 0 0 0 0 0C38.3 298.8 0 364.9 0 440l0 16c0 13.3 10.7 24 24 24s24-10.7 24-24l0-16c0-48.7 20.7-92.5 53.8-123.2C121.6 392.3 190.3 448 272 448l1 0c132.1-.7 239-130.9 239-291.4c0-42.6-7.5-83.1-21.1-119.6c-2.6-6.9-12.7-6.6-16.2-.1C455.9 72.1 418.7 96 376 96L272 96z"/></svg> -->


<!-- <svg width="10px" fill="#f5f5f5ca" xmlns="http://www.w3.org/2000/svg" viewBox="0 0 448 512">!Font Awesome Free 6.7.2 by @fontawesome - https://fontawesome.com License - https://fontawesome.com/license/free Copyright 2025 Fonticons, Inc.<path d="M210.6 5.9L62 169.4c-3.9 4.2-6 9.8-6 15.5C56 197.7 66.3 208 79.1 208l24.9 0L30.6 281.4c-4.2 4.2-6.6 10-6.6 16C24 309.9 34.1 320 46.6 320L80 320 5.4 409.5C1.9 413.7 0 419 0 424.5c0 13 10.5 23.5 23.5 23.5L192 448l0 32c0 17.7 14.3 32 32 32s32-14.3 32-32l0-32 168.5 0c13 0 23.5-10.5 23.5-23.5c0-5.5-1.9-10.8-5.4-15L368 320l33.4 0c12.5 0 22.6-10.1 22.6-22.6c0-6-2.4-11.8-6.6-16L344 208l24.9 0c12.7 0 23.1-10.3 23.1-23.1c0-5.7-2.1-11.3-6-15.5L237.4 5.9C234 2.1 229.1 0 224 0s-10 2.1-13.4 5.9z"/></svg> -->

<!-- <svg width="10px" fill="#f5f5f5ca" xmlns="http://www.w3.org/2000/svg" viewBox="0 0 512 512">!Font Awesome Free 6.7.2 by @fontawesome - https://fontawesome.com License - https://fontawesome.com/license/free Copyright 2025 Fonticons, Inc.<path d="M256 512A256 256 0 1 0 256 0a256 256 0 1 0 0 512zm0-352a96 96 0 1 1 0 192 96 96 0 1 1 0-192z"/></svg> -->

<!-- <svg width="5px" height="5px" fill="#f5f5f5ca" xmlns="http://www.w3.org/2000/svg" viewBox="0 0 512 512">!Font Awesome Free 6.7.2 by @fontawesome - https://fontawesome.com License - https://fontawesome.com/license/free Copyright 2025 Fonticons, Inc.<path d="M256 512A256 256 0 1 0 256 0a256 256 0 1 0 0 512z"/></svg> -->

<svg width="6px" fill="#fafafa" xmlns="http://www.w3.org/2000/svg" viewBox="0 0 512 512"><!--!Font Awesome Free 6.7.2 by @fontawesome - https://fontawesome.com License - https://fontawesome.com/license/free Copyright 2025 Fonticons, Inc.--><path d="M256 512A256 256 0 1 0 256 0a256 256 0 1 0 0 512z"/></svg>


